<svg width="512" height="512" viewBox="0 0 512 512" fill="none" xmlns="http://www.w3.org/2000/svg">
  <rect width="512" height="512" rx="64" fill="#0f172a"/>
  <g transform="translate(128, 128)">
    <!-- Sun -->
    <circle cx="128" cy="128" r="50" fill="#fbbf24" opacity="0.9"/>
    <g stroke="#fbbf24" stroke-width="8" stroke-linecap="round" opacity="0.8">
      <line x1="128" y1="25" x2="128" y2="50"/>
      <line x1="128" y1="206" x2="128" y2="231"/>
      <line x1="25" y1="128" x2="50" y2="128"/>
      <line x1="206" y1="128" x2="231" y2="128"/>
      <line x1="56" y1="56" x2="72" y2="72"/>
      <line x1="184" y1="184" x2="200" y2="200"/>
      <line x1="200" y1="56" x2="184" y2="72"/>
      <line x1="72" y1="184" x2="56" y2="200"/>
    </g>
    <!-- Cloud -->
    <path d="M 74 154 Q 64 144 64 128 Q 64 112 74 102 Q 84 92 100 92 Q 106 80 118 74 Q 128 68 138 74 Q 150 80 156 92 Q 172 92 182 102 Q 192 112 192 128 Q 192 144 182 154 Q 172 164 156 164 L 100 164 Q 84 164 74 154 Z" fill="#60a5fa" opacity="0.85"/>
  </g>
  <text x="256" y="440" font-family="Arial, sans-serif" font-size="48" font-weight="bold" fill="#ffffff" text-anchor="middle">HAUS Weather</text>
</svg>
