<svg width="192" height="192" viewBox="0 0 192 192" fill="none" xmlns="http://www.w3.org/2000/svg">
  <rect width="192" height="192" rx="32" fill="#0f172a"/>
  <g transform="translate(48, 48)">
    <!-- Sun -->
    <circle cx="48" cy="48" r="20" fill="#fbbf24" opacity="0.9"/>
    <g stroke="#fbbf24" stroke-width="3" stroke-linecap="round" opacity="0.8">
      <line x1="48" y1="10" x2="48" y2="18"/>
      <line x1="48" y1="78" x2="48" y2="86"/>
      <line x1="10" y1="48" x2="18" y2="48"/>
      <line x1="78" y1="48" x2="86" y2="48"/>
      <line x1="21" y1="21" x2="27" y2="27"/>
      <line x1="69" y1="69" x2="75" y2="75"/>
      <line x1="75" y1="21" x2="69" y2="27"/>
      <line x1="27" y1="69" x2="21" y2="75"/>
    </g>
    <!-- Cloud -->
    <path d="M 28 58 Q 24 54 24 48 Q 24 42 28 38 Q 32 34 38 34 Q 40 30 44 28 Q 48 26 52 28 Q 56 30 58 34 Q 64 34 68 38 Q 72 42 72 48 Q 72 54 68 58 Q 64 62 58 62 L 38 62 Q 32 62 28 58 Z" fill="#60a5fa" opacity="0.85"/>
  </g>
  <text x="96" y="165" font-family="Arial, sans-serif" font-size="16" font-weight="bold" fill="#ffffff" text-anchor="middle">HAUS</text>
</svg>
